/* XPM */
static char * close_pressed_xpm[] = {
"14 14 126 2",
"  	c None",
". 	c #B9B9B9",
"+ 	c #747474",
"@ 	c #3B3B3B",
"# 	c #131313",
"$ 	c #8B8B8B",
"% 	c #373636",
"& 	c #4D4546",
"* 	c #7F7676",
"= 	c #999090",
"- 	c #989090",
"; 	c #888989",
"> 	c #221B1B",
", 	c #685556",
"' 	c #AE9B9C",
") 	c #D4CBCC",
"! 	c #E5DEDE",
"~ 	c #E6E0E0",
"{ 	c #D6CDCD",
"] 	c #AD9B9C",
"^ 	c #695556",
"/ 	c #231B1B",
"( 	c #898A8A",
"_ 	c #B6B6B6",
": 	c #3C3132",
"< 	c #5C3637",
"[ 	c #9F6A6D",
"} 	c #202020",
"| 	c #DCB0B2",
"1 	c #DFB4B5",
"2 	c #DEB4B5",
"3 	c #5E3738",
"4 	c #3E3233",
"5 	c #B7B7B7",
"6 	c #7F7E7E",
"7 	c #4C1C1F",
"8 	c #89353A",
"9 	c #C5635E",
"0 	c #C5635D",
"a 	c #89363A",
"b 	c #4E1D20",
"c 	c #807F7F",
"d 	c #4F3E3F",
"e 	c #75252A",
"f 	c #A02424",
"g 	c #B12623",
"h 	c #B32523",
"i 	c #9F2324",
"j 	c #75262A",
"k 	c #543E40",
"l 	c #461215",
"m 	c #93262C",
"n 	c #B42825",
"o 	c #C03830",
"p 	c #C94A41",
"q 	c #CC4B44",
"r 	c #C3392F",
"s 	c #B72926",
"t 	c #4A1316",
"u 	c #591014",
"v 	c #A52A2B",
"w 	c #C4413B",
"x 	c #D25148",
"y 	c #DC635A",
"z 	c #E0655C",
"A 	c #D65349",
"B 	c #CA423B",
"C 	c #A5292A",
"D 	c #5A1014",
"E 	c #6E3D3F",
"F 	c #AA312A",
"G 	c #CE554B",
"H 	c #E2685D",
"I 	c #E5695F",
"J 	c #D2554B",
"K 	c #AA3129",
"L 	c #703D3F",
"M 	c #8A7878",
"N 	c #9E2924",
"O 	c #D66059",
"P 	c #FA9D93",
"Q 	c #FA9E94",
"R 	c #DA615A",
"S 	c #A12824",
"T 	c #8B7878",
"U 	c #BCBABA",
"V 	c #813837",
"W 	c #C75651",
"X 	c #F0817C",
"Y 	c #FAA197",
"Z 	c #FAA89F",
"` 	c #FAABA1",
" .	c #FAA499",
"..	c #F4847D",
"+.	c #CF5A52",
"@.	c #833736",
"#.	c #BBBABA",
"$.	c #9B9192",
"%.	c #8F2E29",
"&.	c #D87069",
"*.	c #EF9890",
"=.	c #F5A9A0",
"-.	c #F9B5AA",
";.	c #F9B6AC",
">.	c #F6ADA3",
",.	c #F09B93",
"'.	c #DF776F",
").	c #93312C",
"!.	c #9A9393",
"~.	c #86544F",
"{.	c #AB6058",
"].	c #CA887F",
"^.	c #DF9F97",
"/.	c #E2A49A",
"(.	c #CD8A83",
"_.	c #AF645D",
":.	c #8A5750",
"<.	c #999393",
"[.	c #C7C6C6",
"}.	c #938786",
"|.	c #865E5A",
"1.	c #7F4E46",
"2.	c #804E46",
"3.	c #8B615D",
"4.	c #938685",
"5.	c #C8C8C8",
"      . + @ # # @ + .       ",
"    $ % & * = - * & % $     ",
"  ; > , ' ) ! ~ { ] ^ / (   ",
"_ : < [ } | 1 2 | } [ 3 4 5 ",
"6 7 8 } } } 9 0 } } } a b c ",
"d e f g } } } } } } h i j k ",
"l m n o p } } } } q r s m t ",
"u v w x y } } } } z A B C D ",
"E F G H } } } } } } I J K L ",
"M N O } } } P Q } } } R S T ",
"U V W X } Y Z `  .} ..+.@.#.",
"  $.%.&.*.=.-.;.>.,.'.).$.  ",
"    !.~.{.].^./.(._.:.<.    ",
"      [.}.|.1.2.3.4.5.      "};
