/* XPM */
static char * close_active2_xpm[] = {
"14 14 110 2",
"  	c None",
". 	c #E6E6E6",
"+ 	c #3B3B3B",
"@ 	c #131313",
"# 	c #373636",
"$ 	c #4D4546",
"% 	c #7F7676",
"& 	c #999090",
"* 	c #989090",
"= 	c #221B1B",
"- 	c #685556",
"; 	c #AE9B9C",
"> 	c #D4CBCC",
", 	c #E5DEDE",
"' 	c #E6E0E0",
") 	c #D6CDCD",
"! 	c #AD9B9C",
"~ 	c #695556",
"{ 	c #231B1B",
"] 	c #3C3132",
"^ 	c #5C3637",
"/ 	c #9F6A6D",
"( 	c #202020",
"_ 	c #DCB0B2",
": 	c #DFB4B5",
"< 	c #DEB4B5",
"[ 	c #5E3738",
"} 	c #3E3233",
"| 	c #4C1C1F",
"1 	c #89353A",
"2 	c #C5635E",
"3 	c #C5635D",
"4 	c #89363A",
"5 	c #4E1D20",
"6 	c #4F3E3F",
"7 	c #75252A",
"8 	c #A02424",
"9 	c #B12623",
"0 	c #B32523",
"a 	c #9F2324",
"b 	c #75262A",
"c 	c #543E40",
"d 	c #461215",
"e 	c #93262C",
"f 	c #B42825",
"g 	c #C03830",
"h 	c #C94A41",
"i 	c #CC4B44",
"j 	c #C3392F",
"k 	c #B72926",
"l 	c #4A1316",
"m 	c #591014",
"n 	c #A52A2B",
"o 	c #C4413B",
"p 	c #D25148",
"q 	c #DC635A",
"r 	c #E0655C",
"s 	c #D65349",
"t 	c #CA423B",
"u 	c #A5292A",
"v 	c #5A1014",
"w 	c #6E3D3F",
"x 	c #AA312A",
"y 	c #CE554B",
"z 	c #E2685D",
"A 	c #E5695F",
"B 	c #D2554B",
"C 	c #AA3129",
"D 	c #703D3F",
"E 	c #CCCCCC",
"F 	c #9E2924",
"G 	c #D66059",
"H 	c #FA9D93",
"I 	c #FA9E94",
"J 	c #DA615A",
"K 	c #A12824",
"L 	c #813837",
"M 	c #C75651",
"N 	c #F0817C",
"O 	c #FAA197",
"P 	c #FAA89F",
"Q 	c #FAABA1",
"R 	c #FAA499",
"S 	c #F4847D",
"T 	c #CF5A52",
"U 	c #833736",
"V 	c #8F2E29",
"W 	c #D87069",
"X 	c #EF9890",
"Y 	c #F5A9A0",
"Z 	c #F9B5AA",
"` 	c #F9B6AC",
" .	c #F6ADA3",
"..	c #F09B93",
"+.	c #DF776F",
"@.	c #93312C",
"#.	c #86544F",
"$.	c #AB6058",
"%.	c #CA887F",
"&.	c #DF9F97",
"*.	c #E2A49A",
"=.	c #CD8A83",
"-.	c #AF645D",
";.	c #8A5750",
">.	c #938786",
",.	c #865E5A",
"'.	c #7F4E46",
").	c #804E46",
"!.	c #8B615D",
"~.	c #938685",
". . . . . + @ @ + . . . . . ",
". . . # $ % & * % $ # . . . ",
". . = - ; > , ' ) ! ~ { . . ",
". ] ^ / ( _ : < _ ( / [ } . ",
". | 1 ( ( ( 2 3 ( ( ( 4 5 . ",
"6 7 8 9 ( ( ( ( ( ( 0 a b c ",
"d e f g h ( ( ( ( i j k e l ",
"m n o p q ( ( ( ( r s t u v ",
"w x y z ( ( ( ( ( ( A B C D ",
"E F G ( ( ( H I ( ( ( J K E ",
"E L M N ( O P Q R ( S T U E ",
"E E V W X Y Z `  ...+.@.E E ",
"E E E #.$.%.&.*.=.-.;.E E E ",
"E E E E >.,.'.).!.~.E E E E "};
