/* XPM */
static char * hide_inactive2_xpm[] = {
"14 14 75 1",
" 	c None",
".	c #F5F5F5",
"+	c #A4A4A4",
"@	c #828282",
"#	c #686868",
"$	c #858585",
"%	c #939393",
"&	c #AEAEAE",
"*	c #BDBDBD",
"=	c #949494",
"-	c #797979",
";	c #A2A2A2",
">	c #CACACA",
",	c #DFDFDF",
"'	c #E8E8E8",
")	c #838383",
"!	c #9A9A9A",
"~	c #C3C3C3",
"{	c #DBDBDB",
"]	c #E6E6E6",
"^	c #E7E7E7",
"/	c #AFAFAF",
"(	c #8D8D8D",
"_	c #B5B5B5",
":	c #C8C8C8",
"<	c #D4D4D4",
"[	c #D9D9D9",
"}	c #D8D8D8",
"|	c #B4B4B4",
"1	c #8E8E8E",
"2	c #A6A6A6",
"3	c #C0C0C0",
"4	c #D0D0D0",
"5	c #D5D5D5",
"6	c #CBCBCB",
"7	c #A5A5A5",
"8	c #888888",
"9	c #B6B6B6",
"0	c #D2D2D2",
"a	c #D7D7D7",
"b	c #DCDCDC",
"c	c #DEDEDE",
"d	c #DDDDDD",
"e	c #CCCCCC",
"f	c #B7B7B7",
"g	c #898989",
"h	c #959595",
"i	c #D6D6D6",
"j	c #E2E2E2",
"k	c #E9E9E9",
"l	c #E4E4E4",
"m	c #C4C4C4",
"n	c #ABABAB",
"o	c #C5C5C5",
"p	c #E5E5E5",
"q	c #EAEAEA",
"r	c #EDEDED",
"s	c #F0F0F0",
"t	c #EFEFEF",
"u	c #C6C6C6",
"v	c #F2F2F2",
"w	c #F3F3F3",
"x	c #BEBEBE",
"y	c #F7F7F7",
"z	c #EBEBEB",
"A	c #B8B8B8",
"B	c #F1F1F1",
"C	c #BCBCBC",
"D	c #B9B9B9",
"E	c #C7C7C7",
"F	c #BFBFBF",
"G	c #B1B1B1",
"H	c #B2B2B2",
"I	c #C2C2C2",
"J	c #C1C1C1",
"....+@##@+....",
"...$%&**&=$...",
"..-;>,'',>;-..",
".)!~{]''^{~!).",
"/(_:<[[[}<:|(/",
"123>4<5<<46371",
"89>0abccd}0efg",
"h~icj^kk'lcamh",
"nobpqrsstq]dun",
"**b'rv..wt'cxx",
"k|<'wyyyy.zi_k",
"kkAcs.yy.BlCkk",
"kkkDE{^'b6Ckkk",
"kkkkFxGHIJkkkk"};
