/* XPM */
static char * hide_pressed_xpm[] = {
"14 14 145 2",
"  	c None",
". 	c #B8B8B8",
"+ 	c #747474",
"@ 	c #3B3B3B",
"# 	c #131313",
"$ 	c #8A8A8A",
"% 	c #343434",
"& 	c #464646",
"* 	c #767676",
"= 	c #909190",
"- 	c #919290",
"; 	c #474747",
"> 	c #888888",
", 	c #211E21",
"' 	c #575A57",
") 	c #9CA39C",
"! 	c #CBCFCC",
"~ 	c #DDE1E0",
"{ 	c #DEE1DE",
"] 	c #CBD0CD",
"^ 	c #9BA39C",
"/ 	c #585A58",
"( 	c #201D21",
"_ 	c #898989",
": 	c #B6B6B6",
"< 	c #303030",
"[ 	c #3A4A3A",
"} 	c #6D8C6D",
"| 	c #9DBD9C",
"1 	c #BCD4B3",
"2 	c #C3D8B8",
"3 	c #BDD4B3",
"4 	c #9EBF9C",
"5 	c #6C8C6D",
"6 	c #3A4939",
"7 	c #7E7E7E",
"8 	c #223420",
"9 	c #3E7138",
"0 	c #58943E",
"a 	c #77AD46",
"b 	c #83B34E",
"c 	c #85B552",
"d 	c #86B652",
"e 	c #82B34E",
"f 	c #76AC45",
"g 	c #59943F",
"h 	c #3D7038",
"i 	c #233620",
"j 	c #7F7F7F",
"k 	c #40453F",
"l 	c #2C5E29",
"m 	c #428625",
"n 	c #559B19",
"o 	c #67A51A",
"p 	c #73AD28",
"q 	c #75B12D",
"r 	c #74B02C",
"s 	c #73AE28",
"t 	c #69A81D",
"u 	c #569D19",
"v 	c #418825",
"w 	c #1B3114",
"x 	c #3D7B2B",
"y 	c #589C1C",
"z 	c #202020",
"A 	c #5C9F1C",
"B 	c #3D7B2C",
"C 	c #1C3214",
"D 	c #1B3D12",
"E 	c #528D2B",
"F 	c #71B028",
"G 	c #73B128",
"H 	c #528F2B",
"I 	c #1E4111",
"J 	c #455E3D",
"K 	c #5A9425",
"L 	c #81BD3A",
"M 	c #93D149",
"N 	c #A1DA5B",
"O 	c #ADE568",
"P 	c #B5EB6F",
"Q 	c #B5EB70",
"R 	c #AFE869",
"S 	c #A2DD5B",
"T 	c #93D148",
"U 	c #82C03A",
"V 	c #5A9624",
"W 	c #46633D",
"X 	c #7B8478",
"Y 	c #518A1A",
"Z 	c #8AC144",
"` 	c #A0DB59",
" .	c #AFE968",
"..	c #BBF475",
"+.	c #C4FC7E",
"@.	c #C5FB7F",
"#.	c #BEF979",
"$.	c #B1ED69",
"%.	c #A1DC5C",
"&.	c #8CC646",
"*.	c #528B1A",
"=.	c #7C8678",
"-.	c #B9BAB9",
";.	c #4E732E",
">.	c #7FB93F",
",.	c #A9DF66",
"'.	c #BFF779",
").	c #CBFF83",
"!.	c #D1FF8A",
"~.	c #D3FF8B",
"{.	c #CDFF84",
"].	c #C1FC7B",
"^.	c #ABE568",
"/.	c #84BD41",
"(.	c #50752F",
"_.	c #B9BAB8",
":.	c #949891",
"<.	c #558126",
"[.	c #95CD55",
"}.	c #BCF07C",
"|.	c #CDFA8C",
"1.	c #DBFD95",
"2.	c #DBFD96",
"3.	c #D0FA8E",
"4.	c #C1F37D",
"5.	c #9FDA59",
"6.	c #5A8526",
"7.	c #969892",
"8.	c #658043",
"9.	c #81AC48",
"0.	c #AACE6B",
"a.	c #C2E282",
"b.	c #C6E486",
"c.	c #AECF72",
"d.	c #87B24C",
"e.	c #6A8845",
"f.	c #949892",
"g.	c #C6C6C5",
"h.	c #8C9385",
"i.	c #718651",
"j.	c #668138",
"k.	c #678339",
"l.	c #758C53",
"m.	c #8D9485",
"n.	c #C8C8C8",
"      . + @ # # @ + .       ",
"    $ % & * = - * ; % $     ",
"  > , ' ) ! ~ { ] ^ / ( _   ",
": < [ } | 1 2 2 3 4 5 6 < : ",
"7 8 9 0 a b c d e f g h i j ",
"k l m n o p q r s t u v l k ",
"w x y z z z z z z z z A B C ",
"D E F z z z z z z z z G H I ",
"J K L M N O P Q R S T U V W ",
"X Y Z `  ...+.@.#.$.%.&.*.=.",
"-.;.>.,.'.).!.~.{.].^./.(._.",
"  :.<.[.}.|.1.2.3.4.5.6.:.  ",
"    7.8.9.0.a.b.c.d.e.f.    ",
"      g.h.i.j.k.l.m.n.      "};
