/* XPM */
static char * hide_active2_xpm[] = {
"14 14 135 2",
"  	c None",
". 	c #F5F5F5",
"+ 	c #747474",
"@ 	c #3B3B3B",
"# 	c #131313",
"$ 	c #343434",
"% 	c #464646",
"& 	c #767676",
"* 	c #909190",
"= 	c #919290",
"- 	c #474747",
"; 	c #211E21",
"> 	c #575A57",
", 	c #9CA39C",
"' 	c #CBCFCC",
") 	c #DDE1E0",
"! 	c #DEE1DE",
"~ 	c #CBD0CD",
"{ 	c #9BA39C",
"] 	c #585A58",
"^ 	c #201D21",
"/ 	c #303030",
"( 	c #3A4A3A",
"_ 	c #6D8C6D",
": 	c #9DBD9C",
"< 	c #BCD4B3",
"[ 	c #C3D8B8",
"} 	c #BDD4B3",
"| 	c #9EBF9C",
"1 	c #6C8C6D",
"2 	c #3A4939",
"3 	c #7E7E7E",
"4 	c #223420",
"5 	c #3E7138",
"6 	c #58943E",
"7 	c #77AD46",
"8 	c #83B34E",
"9 	c #85B552",
"0 	c #86B652",
"a 	c #82B34E",
"b 	c #76AC45",
"c 	c #59943F",
"d 	c #3D7038",
"e 	c #233620",
"f 	c #7F7F7F",
"g 	c #40453F",
"h 	c #2C5E29",
"i 	c #428625",
"j 	c #559B19",
"k 	c #67A51A",
"l 	c #73AD28",
"m 	c #75B12D",
"n 	c #74B02C",
"o 	c #73AE28",
"p 	c #69A81D",
"q 	c #569D19",
"r 	c #418825",
"s 	c #1B3114",
"t 	c #3D7B2B",
"u 	c #589C1C",
"v 	c #202020",
"w 	c #5C9F1C",
"x 	c #3D7B2C",
"y 	c #1C3214",
"z 	c #1B3D12",
"A 	c #528D2B",
"B 	c #71B028",
"C 	c #73B128",
"D 	c #528F2B",
"E 	c #1E4111",
"F 	c #455E3D",
"G 	c #5A9425",
"H 	c #81BD3A",
"I 	c #93D149",
"J 	c #A1DA5B",
"K 	c #ADE568",
"L 	c #B5EB6F",
"M 	c #B5EB70",
"N 	c #AFE869",
"O 	c #A2DD5B",
"P 	c #93D148",
"Q 	c #82C03A",
"R 	c #5A9624",
"S 	c #46633D",
"T 	c #7B8478",
"U 	c #518A1A",
"V 	c #8AC144",
"W 	c #A0DB59",
"X 	c #AFE968",
"Y 	c #BBF475",
"Z 	c #C4FC7E",
"` 	c #C5FB7F",
" .	c #BEF979",
"..	c #B1ED69",
"+.	c #A1DC5C",
"@.	c #8CC646",
"#.	c #528B1A",
"$.	c #7C8678",
"%.	c #E9E9E9",
"&.	c #4E732E",
"*.	c #7FB93F",
"=.	c #A9DF66",
"-.	c #BFF779",
";.	c #CBFF83",
">.	c #D1FF8A",
",.	c #D3FF8B",
"'.	c #CDFF84",
").	c #C1FC7B",
"!.	c #ABE568",
"~.	c #84BD41",
"{.	c #50752F",
"].	c #558126",
"^.	c #95CD55",
"/.	c #BCF07C",
"(.	c #CDFA8C",
"_.	c #DBFD95",
":.	c #DBFD96",
"<.	c #D0FA8E",
"[.	c #C1F37D",
"}.	c #9FDA59",
"|.	c #5A8526",
"1.	c #658043",
"2.	c #81AC48",
"3.	c #AACE6B",
"4.	c #C2E282",
"5.	c #C6E486",
"6.	c #AECF72",
"7.	c #87B24C",
"8.	c #6A8845",
"9.	c #8C9385",
"0.	c #718651",
"a.	c #668138",
"b.	c #678339",
"c.	c #758C53",
"d.	c #8D9485",
". . . . + @ # # @ + . . . . ",
". . . $ % & * = & - $ . . . ",
". . ; > , ' ) ! ~ { ] ^ . . ",
". / ( _ : < [ [ } | 1 2 / . ",
"3 4 5 6 7 8 9 0 a b c d e f ",
"g h i j k l m n o p q r h g ",
"s t u v v v v v v v v w x y ",
"z A B v v v v v v v v C D E ",
"F G H I J K L M N O P Q R S ",
"T U V W X Y Z `  ...+.@.#.$.",
"%.&.*.=.-.;.>.,.'.).!.~.{.%.",
"%.%.].^./.(._.:.<.[.}.|.%.%.",
"%.%.%.1.2.3.4.5.6.7.8.%.%.%.",
"%.%.%.%.9.0.a.b.c.d.%.%.%.%."};
