/* XPM */
static char * maximize_pressed_xpm[] = {
"14 14 134 2",
"  	c None",
". 	c #B8B8B8",
"+ 	c #767474",
"@ 	c #453A3B",
"# 	c #251113",
"$ 	c #443A3A",
"% 	c #8C8A8A",
"& 	c #483333",
"* 	c #624244",
"= 	c #8E7576",
"- 	c #A39090",
"; 	c #A49090",
"> 	c #8F7576",
", 	c #644546",
"' 	c #473333",
") 	c #8B8888",
"! 	c #431E1F",
"~ 	c #835357",
"{ 	c #BE9D9C",
"] 	c #DACECC",
"^ 	c #E7DEDE",
"/ 	c #DACDCC",
"( 	c #825357",
"_ 	c #441E22",
": 	c #8C8989",
"< 	c #B6B6B6",
"[ 	c #4D2B2F",
"} 	c #7C3D37",
"| 	c #B87E6C",
"1 	c #D9B29C",
"2 	c #E8CEB5",
"3 	c #202020",
"4 	c #B97E6D",
"5 	c #813F39",
"6 	c #552C30",
"7 	c #867E7E",
"8 	c #61201B",
"9 	c #AD5B38",
"0 	c #CA813F",
"a 	c #DC9B46",
"b 	c #E1A64C",
"c 	c #E0A54B",
"d 	c #DA9A46",
"e 	c #CA823F",
"f 	c #AC5B39",
"g 	c #732520",
"h 	c #867F7F",
"i 	c #633E3F",
"j 	c #8B4125",
"k 	c #C57027",
"l 	c #D88517",
"m 	c #E09217",
"n 	c #E59B22",
"o 	c #E69C22",
"p 	c #E39317",
"q 	c #D88717",
"r 	c #C57327",
"s 	c #9A482A",
"t 	c #633E3E",
"u 	c #681D15",
"v 	c #B3662B",
"w 	c #DB8719",
"x 	c #DE8B1A",
"y 	c #B6672C",
"z 	c #681F16",
"A 	c #7A3013",
"B 	c #C77B2B",
"C 	c #EA9B22",
"D 	c #EE9E21",
"E 	c #C97E2B",
"F 	c #7B3013",
"G 	c #83563D",
"H 	c #CC8127",
"I 	c #F2AA34",
"J 	c #FCBD42",
"K 	c #FDCA52",
"L 	c #FDD463",
"M 	c #FDD764",
"N 	c #FDCB54",
"O 	c #F4AE36",
"P 	c #D08427",
"Q 	c #85563E",
"R 	c #928278",
"S 	c #C17B1B",
"T 	c #F1B141",
"U 	c #FBC954",
"V 	c #FDD861",
"W 	c #FEE36F",
"X 	c #FEE772",
"Y 	c #FEDA62",
"Z 	c #FBCB55",
"` 	c #F2B641",
" .	c #C37B1B",
"..	c #938278",
"+.	c #BCBAB9",
"@.	c #94682F",
"#.	c #DFA83D",
"$.	c #F7D15F",
"%.	c #FDE772",
"&.	c #FFF47D",
"*.	c #FFF57E",
"=.	c #FEEB73",
"-.	c #F9D561",
";.	c #E1AD3D",
">.	c #956930",
",.	c #BCBAB8",
"'.	c #9C9791",
").	c #9A7523",
"!.	c #DBBB50",
"~.	c #F4E477",
"{.	c #FAF585",
"].	c #FDFD91",
"^.	c #FDFC92",
"/.	c #FAF888",
"(.	c #F5EB79",
"_.	c #E2C755",
":.	c #9E7B23",
"<.	c #9A9792",
"[.	c #897A42",
"}.	c #AFA442",
"|.	c #D0CB67",
"1.	c #E6E480",
"2.	c #E7E381",
"3.	c #D2CF6A",
"4.	c #B5AE45",
"5.	c #8D7F44",
"6.	c #C7C6C5",
"7.	c #939184",
"8.	c #88854F",
"9.	c #858135",
"0.	c #858235",
"a.	c #8E8C50",
"b.	c #949284",
"c.	c #C8C8C8",
"      . + @ # # $ + .       ",
"    % & * = - ; > , ' %     ",
"  ) ! ~ { ] ^ ^ / { ( _ :   ",
"< [ } | 1 2 3 3 2 1 4 5 6 < ",
"7 8 9 0 a b 3 3 c d e f g h ",
"i j k l m n 3 3 o p q r s t ",
"u v w 3 3 3 3 3 3 3 3 x y z ",
"A B C 3 3 3 3 3 3 3 3 D E F ",
"G H I J K L 3 3 M N J O P Q ",
"R S T U V W 3 3 X Y Z `  ...",
"+.@.#.$.%.&.3 3 *.=.-.;.>.,.",
"  '.).!.~.{.].^./.(._.:.'.  ",
"    <.[.}.|.1.2.3.4.5.<.    ",
"      6.7.8.9.0.a.b.c.      "};
