/* XPM */
static char * inactive_xpm[] = {
"14 14 77 1",
" 	c None",
".	c #D1D1D1",
"+	c #A4A4A4",
"@	c #828282",
"#	c #686868",
"$	c #B0B0B0",
"%	c #858585",
"&	c #939393",
"*	c #AEAEAE",
"=	c #BDBDBD",
"-	c #949494",
";	c #797979",
">	c #A2A2A2",
",	c #CACACA",
"'	c #DFDFDF",
")	c #E8E8E8",
"!	c #B1B1B1",
"~	c #838383",
"{	c #9A9A9A",
"]	c #C3C3C3",
"^	c #DBDBDB",
"/	c #E6E6E6",
"(	c #E7E7E7",
"_	c #D2D2D2",
":	c #AFAFAF",
"<	c #8D8D8D",
"[	c #B5B5B5",
"}	c #C8C8C8",
"|	c #D4D4D4",
"1	c #D9D9D9",
"2	c #D8D8D8",
"3	c #B4B4B4",
"4	c #8E8E8E",
"5	c #A6A6A6",
"6	c #C0C0C0",
"7	c #D0D0D0",
"8	c #D5D5D5",
"9	c #CBCBCB",
"0	c #A5A5A5",
"a	c #888888",
"b	c #B6B6B6",
"c	c #D7D7D7",
"d	c #DCDCDC",
"e	c #DEDEDE",
"f	c #DDDDDD",
"g	c #CCCCCC",
"h	c #B7B7B7",
"i	c #898989",
"j	c #959595",
"k	c #D6D6D6",
"l	c #E2E2E2",
"m	c #E9E9E9",
"n	c #E4E4E4",
"o	c #C4C4C4",
"p	c #ABABAB",
"q	c #C5C5C5",
"r	c #E5E5E5",
"s	c #EAEAEA",
"t	c #EDEDED",
"u	c #F0F0F0",
"v	c #EFEFEF",
"w	c #C6C6C6",
"x	c #F2F2F2",
"y	c #F5F5F5",
"z	c #F3F3F3",
"A	c #BEBEBE",
"B	c #F7F7F7",
"C	c #EBEBEB",
"D	c #B8B8B8",
"E	c #F1F1F1",
"F	c #BCBCBC",
"G	c #C2C2C2",
"H	c #B9B9B9",
"I	c #C7C7C7",
"J	c #BFBFBF",
"K	c #B2B2B2",
"L	c #C1C1C1",
"   .+@##@+.   ",
"  $%&*==*-%$  ",
" $;>,'))',>;! ",
".~{]^/))(^]{~_",
":<[}|1112|}3<:",
"456,7|8||79604",
"ab,_cdeef2_ghi",
"j]kel(mm)necoj",
"pqdrstuuvs/fwp",
"==d)txyyzv)eAA",
"c3|)zBBBByCk[1",
" qDeuyBByEnFw ",
"  GHI^()d9FG  ",
"   ^JA!KGL^   "};
