/* XPM */
static char * maximize_active2_xpm[] = {
"14 14 125 2",
"  	c None",
". 	c #F5F5F5",
"+ 	c #767474",
"@ 	c #453A3B",
"# 	c #251113",
"$ 	c #443A3A",
"% 	c #483333",
"& 	c #624244",
"* 	c #8E7576",
"= 	c #A39090",
"- 	c #A49090",
"; 	c #8F7576",
"> 	c #644546",
", 	c #473333",
"' 	c #431E1F",
") 	c #835357",
"! 	c #BE9D9C",
"~ 	c #DACECC",
"{ 	c #E7DEDE",
"] 	c #DACDCC",
"^ 	c #825357",
"/ 	c #441E22",
"( 	c #4D2B2F",
"_ 	c #7C3D37",
": 	c #B87E6C",
"< 	c #D9B29C",
"[ 	c #E8CEB5",
"} 	c #202020",
"| 	c #B97E6D",
"1 	c #813F39",
"2 	c #552C30",
"3 	c #867E7E",
"4 	c #61201B",
"5 	c #AD5B38",
"6 	c #CA813F",
"7 	c #DC9B46",
"8 	c #E1A64C",
"9 	c #E0A54B",
"0 	c #DA9A46",
"a 	c #CA823F",
"b 	c #AC5B39",
"c 	c #732520",
"d 	c #867F7F",
"e 	c #633E3F",
"f 	c #8B4125",
"g 	c #C57027",
"h 	c #D88517",
"i 	c #E09217",
"j 	c #E59B22",
"k 	c #E69C22",
"l 	c #E39317",
"m 	c #D88717",
"n 	c #C57327",
"o 	c #9A482A",
"p 	c #633E3E",
"q 	c #681D15",
"r 	c #B3662B",
"s 	c #DB8719",
"t 	c #DE8B1A",
"u 	c #B6672C",
"v 	c #681F16",
"w 	c #7A3013",
"x 	c #C77B2B",
"y 	c #EA9B22",
"z 	c #EE9E21",
"A 	c #C97E2B",
"B 	c #7B3013",
"C 	c #83563D",
"D 	c #CC8127",
"E 	c #F2AA34",
"F 	c #FCBD42",
"G 	c #FDCA52",
"H 	c #FDD463",
"I 	c #FDD764",
"J 	c #FDCB54",
"K 	c #F4AE36",
"L 	c #D08427",
"M 	c #85563E",
"N 	c #928278",
"O 	c #C17B1B",
"P 	c #F1B141",
"Q 	c #FBC954",
"R 	c #FDD861",
"S 	c #FEE36F",
"T 	c #FEE772",
"U 	c #FEDA62",
"V 	c #FBCB55",
"W 	c #F2B641",
"X 	c #C37B1B",
"Y 	c #938278",
"Z 	c #E9E9E9",
"` 	c #94682F",
" .	c #DFA83D",
"..	c #F7D15F",
"+.	c #FDE772",
"@.	c #FFF47D",
"#.	c #FFF57E",
"$.	c #FEEB73",
"%.	c #F9D561",
"&.	c #E1AD3D",
"*.	c #956930",
"=.	c #9A7523",
"-.	c #DBBB50",
";.	c #F4E477",
">.	c #FAF585",
",.	c #FDFD91",
"'.	c #FDFC92",
").	c #FAF888",
"!.	c #F5EB79",
"~.	c #E2C755",
"{.	c #9E7B23",
"].	c #897A42",
"^.	c #AFA442",
"/.	c #D0CB67",
"(.	c #E6E480",
"_.	c #E7E381",
":.	c #D2CF6A",
"<.	c #B5AE45",
"[.	c #8D7F44",
"}.	c #939184",
"|.	c #88854F",
"1.	c #858135",
"2.	c #858235",
"3.	c #8E8C50",
"4.	c #949284",
". . . . + @ # # $ + . . . . ",
". . . % & * = - ; > , . . . ",
". . ' ) ! ~ { { ] ! ^ / . . ",
". ( _ : < [ } } [ < | 1 2 . ",
"3 4 5 6 7 8 } } 9 0 a b c d ",
"e f g h i j } } k l m n o p ",
"q r s } } } } } } } } t u v ",
"w x y } } } } } } } } z A B ",
"C D E F G H } } I J F K L M ",
"N O P Q R S } } T U V W X Y ",
"Z `  ...+.@.} } #.$.%.&.*.Z ",
"Z Z =.-.;.>.,.'.).!.~.{.Z Z ",
"Z Z Z ].^./.(._.:.<.[.Z Z Z ",
"Z Z Z Z }.|.1.2.3.4.Z Z Z Z "};
