/* XPM */
static char * menu_pressed_xpm[] = {
"20 10 55 1",
" 	c None",
".	c #8B8B8B",
"+	c #505050",
"@	c #2D2D2D",
"#	c #262626",
"$	c #282828",
"%	c #6F6F6F",
"&	c #464646",
"*	c #24549D",
"=	c #718EB9",
"-	c #6F92C7",
";	c #7899CB",
">	c #434343",
",	c #3C68AC",
"'	c #93AED7",
")	c #B6C8E5",
"!	c #C0D0E9",
"~	c #C6D4EB",
"{	c #8C8C8C",
"]	c #525252",
"^	c #11438F",
"/	c #6187C0",
"(	c #8EAAD5",
"_	c #A2B9DD",
":	c #A4BBDE",
"<	c #363636",
"[	c #3361A7",
"}	c #7E9ECE",
"|	c #8AA7D3",
"1	c #393939",
"2	c #4671B2",
"3	c #9DB5DB",
"4	c #ACC1E1",
"5	c #B1C5E3",
"6	c #383838",
"7	c #595959",
"8	c #3A67AB",
"9	c #BECEE8",
"0	c #DCE5F3",
"a	c #EAEFF8",
"b	c #E7EDF7",
"c	c #8A8A8A",
"d	c #575757",
"e	c #7194C8",
"f	c #EDF1F9",
"g	c #F3F6FB",
"h	c #7D7D7D",
"i	c #4F4F4F",
"j	c #3563A8",
"k	c #A7BDDF",
"l	c #979797",
"m	c #5B5B5B",
"n	c #1F1F1F",
"o	c #212121",
"p	c #2F2F2F",
"  .+@#$$$$$$$$#@+.  ",
" %&*=-;;;;;;;;-=*&% ",
".>,')!~~~~~~~~!)',>{",
"]^/(_:::____:::_(/^]",
"<[-}||((||||((||}-[<",
"12|345)55))55)543|26",
"78|90abaaaaaaba09|87",
"cde9fggggggggggf9edc",
" hij}_kkkkkkkk4(jih ",
"  lm@noooooooonpml  "};
