/* XPM */
static char * menu_inactive_xpm[] = {
"20 10 64 1",
" 	c None",
".	c #B7B7B7",
"+	c #8F8F8F",
"@	c #757575",
"#	c #6C6C6C",
"$	c #6D6D6D",
"%	c #6E6E6E",
"&	c #767676",
"*	c #A7A7A7",
"=	c #828282",
"-	c #ABABAB",
";	c #C5C5C5",
">	c #CDCDCD",
",	c #D0D0D0",
"'	c #CFCFCF",
")	c #C4C4C4",
"!	c #B9B9B9",
"~	c #808080",
"{	c #B8B8B8",
"]	c #DADADA",
"^	c #E5E5E5",
"/	c #E8E8E8",
"(	c #EAEAEA",
"_	c #A0A0A0",
":	c #C7C7C7",
"<	c #D7D7D7",
"[	c #DDDDDD",
"}	c #DFDFDF",
"|	c #DEDEDE",
"1	c #9F9F9F",
"2	c #797979",
"3	c #B2B2B2",
"4	c #CCCCCC",
"5	c #D2D2D2",
"6	c #D5D5D5",
"7	c #D6D6D6",
"8	c #787878",
"9	c #7A7A7A",
"0	c #BCBCBC",
"a	c #E2E2E2",
"b	c #E3E3E3",
"c	c #E4E4E4",
"d	c #909090",
"e	c #E7E7E7",
"f	c #F1F1F1",
"g	c #F5F5F5",
"h	c #F3F3F3",
"i	c #F4F4F4",
"j	c #B1B1B1",
"k	c #8C8C8C",
"l	c #E6E6E6",
"m	c #F6F6F6",
"n	c #8B8B8B",
"o	c #A4A4A4",
"p	c #868686",
"q	c #B3B3B3",
"r	c #D1D1D1",
"s	c #E0E0E0",
"t	c #B6B6B6",
"u	c #717171",
"v	c #686868",
"w	c #6A6A6A",
"x	c #6B6B6B",
"y	c #737373",
"  .+@#$$%$%$$$#&+.  ",
" *=-;>,'',,',,>)-=* ",
"!~{]^/((((((((/^]{~!",
"+_:<[}}|||||}|}[<:1+",
"234567<<7667<<765438",
"907[ab^bc^^cb^ba|709",
"d.<efghgiggighgfe<.d",
"jk>limmmmmmmmmmil>nj",
" opqr[}}}}}}}}s<qpo ",
"  tduvwwxwwwxxvy+t  "};
