/* XPM */
static char * title_1_inactive_xpm[] = {
"6 22 17 1",
" 	c None",
".	c #F9F9F9",
"+	c #F8F8F8",
"@	c #F5F5F5",
"#	c #F4F4F4",
"$	c #F3F3F3",
"%	c #F2F2F2",
"&	c #F1F1F1",
"*	c #F0F0F0",
"=	c #EFEFEF",
"-	c #EEEEEE",
";	c #EDEDED",
">	c #ECECEC",
",	c #EBEBEB",
"'	c #EAEAEA",
")	c #E9E9E9",
"!	c #8C8C8C",
"......",
"++++++",
"@@@@@@",
"@@@@@@",
"@@@@@@",
"@@@@@@",
"######",
"$$$$$$",
"$$$$$$",
"%%%%%%",
"%%%%%%",
"&&&&&&",
"******",
"======",
"------",
"------",
";;;;;;",
">>>>>>",
",,,,,,",
"''''''",
"))))))",
"!!!!!!"};
